# xmcd CD database file
#
# Track frame offsets:
#	150
#	17744
#	36869
#	58371
#	74508
#	90320
#	107248
#	123031
#	140874
#	161386
#	175283
#	194250
#
# Disc length: 2857 seconds
#
# Revision: 6
# Processed by: cddbd v1.5.1PL0 Copyright (c) Steve Scherf et al.
# Submitted via: CDex 1.51
#
DISCID=a80b270c
DTITLE=Piano: Matthias Hülsemann, Schlagzeug: Uli Tietzel, Baß: Oliver Karstens, Saxophon: Rudi Gunka, Keyboards: Dirk Nagel - Bar Musik Vol. 2
DYEAR=2004
DGENRE=Jazz
TTITLE0=Take The A-Train
TTITLE1=Girl From Ipanema
TTITLE2=All The Things You Are
TTITLE3=Bluesette
TTITLE4=Lullaby Of Birdland
TTITLE5=Summer Samba
TTITLE6=How High The Moon
TTITLE7=Desafinado
TTITLE8=Taking A Chance For Love
TTITLE9=Moon River
TTITLE10=Satin Doll
TTITLE11=This One's For Charlie
EXTD=
EXTT0=
EXTT1=
EXTT2=
EXTT3=
EXTT4=
EXTT5=
EXTT6=
EXTT7=
EXTT8=
EXTT9=
EXTT10=
EXTT11=
PLAYORDER=
